<svg xmlns="http://www.w3.org/2000/svg" width="78.801" height="77.97" viewBox="0 0 78.801 77.97">
  <g id="logo_DPM_1_copy-01" data-name="logo DPM 1 copy-01" transform="translate(-845.3 -25.22)">
    <path id="Path_1" data-name="Path 1" d="M859.755,25.22h8.08V63.364a12.168,12.168,0,0,1-2.592,8.059,10.6,10.6,0,0,1-3.792,2.852,11.534,11.534,0,0,1-12.845-2.182,10.7,10.7,0,0,1-3.306-7.949,10.85,10.85,0,0,1,3.284-7.886,10.561,10.561,0,0,1,7.779-3.327q.713,0,2.16.129v8.9a3.221,3.221,0,0,0-1.987-.778,2.9,2.9,0,0,0-2.15.918,3.056,3.056,0,0,0-.9,2.215,2.882,2.882,0,0,0,.929,2.149,3.092,3.092,0,0,0,2.226.9q3.112,0,3.112-4.3Z" fill="#fff"/>
    <path id="Path_2" data-name="Path 2" d="M1230.521,507.167h-8.081v-38.8a12.168,12.168,0,0,1,2.593-8.059,10.617,10.617,0,0,1,3.792-2.852,11.536,11.536,0,0,1,12.846,2.182,10.7,10.7,0,0,1,3.306,7.949,10.87,10.87,0,0,1-3.285,7.908,10.571,10.571,0,0,1-7.779,3.328q-.734,0-2.16-.151v-8.9a3.178,3.178,0,0,0,1.988.8,2.882,2.882,0,0,0,2.149-.929,3.065,3.065,0,0,0,.9-2.2,2.908,2.908,0,0,0-.929-2.171,3.092,3.092,0,0,0-2.226-.9q-3.112,0-3.111,4.3Z" transform="translate(-353.346 -403.977)" fill="#fff"/>
    <path id="Path_3" data-name="Path 3" d="M1655.369,488.374h-8.081V476.75a4.284,4.284,0,0,0-.281-1.859,1.052,1.052,0,0,0-1.016-.519q-1.361,0-1.361,2.4v11.6h-8.082V476.75a4.135,4.135,0,0,0-.292-1.859,1.077,1.077,0,0,0-1.027-.519q-1.339,0-1.339,2.4v11.6h-8.079V475.108a8.57,8.57,0,0,1,2.442-6.169,7.909,7.909,0,0,1,5.92-2.539,8.659,8.659,0,0,1,6.439,3.028q3.177-3.028,6.352-3.028a8.011,8.011,0,0,1,6.483,2.939q1.923,2.29,1.923,6.676Z" transform="translate(-731.268 -413.346)" fill="#fff"/>
    <text id="Digital_Post_Marketing_UAE" data-name="Digital Post Marketing UAE" transform="translate(880.534 82.327)" fill="#ffaa17" font-size="3.5" font-family="ArialMT, Arial"><tspan x="0" y="0">Digital Post Marketing UAE</tspan></text>
  </g>
</svg>
